<mxfile host="app.diagrams.net" modified="2024-01-07T04:48:09.346Z" agent="Mozilla/5.0 (Windows NT 10.0; Win64; x64) AppleWebKit/537.36 (KHTML, like Gecko) Chrome/120.0.0.0 Safari/537.36" version="22.1.17" etag="jnuziw_zq_PGPMWBrL_S" type="device">
  <diagram id="wjS1qJ77IeWFdVASJCPn" name="Page-1">
    <mxGraphModel dx="1571" dy="2766" grid="0" gridSize="10" guides="1" tooltips="1" connect="1" arrows="1" fold="1" page="0" pageScale="1" pageWidth="827" pageHeight="1169" math="0" shadow="0">
      <root>
        <mxCell id="0" />
        <mxCell id="1" parent="0" />
        <mxCell id="wfW3c35R-SHwTNN0qE-Y-12" style="edgeStyle=none;curved=1;rounded=0;orthogonalLoop=1;jettySize=auto;html=1;entryX=0.5;entryY=0;entryDx=0;entryDy=0;fontSize=12;startSize=8;endSize=8;" edge="1" parent="1" source="wfW3c35R-SHwTNN0qE-Y-5" target="wfW3c35R-SHwTNN0qE-Y-10">
          <mxGeometry relative="1" as="geometry" />
        </mxCell>
        <mxCell id="wfW3c35R-SHwTNN0qE-Y-5" value="&lt;b&gt;&lt;u&gt;Units&lt;br&gt;&lt;/u&gt;&lt;/b&gt;&lt;br&gt;Name&lt;br&gt;Tier&lt;br&gt;Traits" style="rounded=0;whiteSpace=wrap;html=1;fontSize=16;" vertex="1" parent="1">
          <mxGeometry x="-231" y="-39" width="120" height="149" as="geometry" />
        </mxCell>
        <mxCell id="wfW3c35R-SHwTNN0qE-Y-20" style="edgeStyle=none;curved=1;rounded=0;orthogonalLoop=1;jettySize=auto;html=1;entryX=1;entryY=0.5;entryDx=0;entryDy=0;fontSize=12;startSize=8;endSize=8;exitX=0.5;exitY=1;exitDx=0;exitDy=0;" edge="1" parent="1" source="wfW3c35R-SHwTNN0qE-Y-6" target="wfW3c35R-SHwTNN0qE-Y-18">
          <mxGeometry relative="1" as="geometry" />
        </mxCell>
        <mxCell id="wfW3c35R-SHwTNN0qE-Y-6" value="&lt;b&gt;&lt;u&gt;Traits&lt;br&gt;&lt;/u&gt;&lt;/b&gt;&lt;br&gt;Traits&lt;br&gt;Min_Units" style="rounded=0;whiteSpace=wrap;html=1;fontSize=16;" vertex="1" parent="1">
          <mxGeometry x="513" y="-39" width="120" height="149" as="geometry" />
        </mxCell>
        <mxCell id="wfW3c35R-SHwTNN0qE-Y-13" style="edgeStyle=none;curved=1;rounded=0;orthogonalLoop=1;jettySize=auto;html=1;fontSize=12;startSize=8;endSize=8;" edge="1" parent="1" source="wfW3c35R-SHwTNN0qE-Y-8">
          <mxGeometry relative="1" as="geometry">
            <mxPoint x="-57" y="208" as="targetPoint" />
          </mxGeometry>
        </mxCell>
        <mxCell id="wfW3c35R-SHwTNN0qE-Y-8" value="&lt;b&gt;&lt;u&gt;Initialize&lt;/u&gt;&lt;/b&gt;&lt;br&gt;&lt;br&gt;Cost: 1,2,3,4,5&lt;br&gt;Team Size&lt;br&gt;Min_Partial" style="rounded=1;whiteSpace=wrap;html=1;fontSize=16;" vertex="1" parent="1">
          <mxGeometry x="-35" y="-39" width="167" height="149" as="geometry" />
        </mxCell>
        <mxCell id="wfW3c35R-SHwTNN0qE-Y-9" value="&lt;b&gt;&lt;u&gt;Team&lt;br&gt;&lt;/u&gt;&lt;/b&gt;&lt;br&gt;Name&lt;br&gt;Tier&lt;br&gt;Traits" style="rounded=0;whiteSpace=wrap;html=1;fontSize=16;" vertex="1" parent="1">
          <mxGeometry x="172" y="313" width="120" height="149" as="geometry" />
        </mxCell>
        <mxCell id="wfW3c35R-SHwTNN0qE-Y-16" style="edgeStyle=none;curved=1;rounded=0;orthogonalLoop=1;jettySize=auto;html=1;exitX=0.5;exitY=1;exitDx=0;exitDy=0;entryX=0.5;entryY=0;entryDx=0;entryDy=0;fontSize=12;startSize=8;endSize=8;" edge="1" parent="1" source="wfW3c35R-SHwTNN0qE-Y-10" target="wfW3c35R-SHwTNN0qE-Y-14">
          <mxGeometry relative="1" as="geometry" />
        </mxCell>
        <mxCell id="wfW3c35R-SHwTNN0qE-Y-10" value="Filter Units" style="shape=process;whiteSpace=wrap;html=1;backgroundOutline=1;fontSize=16;" vertex="1" parent="1">
          <mxGeometry x="-143" y="208" width="173" height="91" as="geometry" />
        </mxCell>
        <mxCell id="wfW3c35R-SHwTNN0qE-Y-17" style="edgeStyle=none;curved=1;rounded=0;orthogonalLoop=1;jettySize=auto;html=1;exitX=1;exitY=0.5;exitDx=0;exitDy=0;entryX=0;entryY=0.5;entryDx=0;entryDy=0;fontSize=12;startSize=8;endSize=8;" edge="1" parent="1" source="wfW3c35R-SHwTNN0qE-Y-14" target="wfW3c35R-SHwTNN0qE-Y-9">
          <mxGeometry relative="1" as="geometry" />
        </mxCell>
        <mxCell id="wfW3c35R-SHwTNN0qE-Y-14" value="Unit Permutations" style="shape=process;whiteSpace=wrap;html=1;backgroundOutline=1;fontSize=16;" vertex="1" parent="1">
          <mxGeometry x="-143" y="342" width="173" height="91" as="geometry" />
        </mxCell>
        <mxCell id="wfW3c35R-SHwTNN0qE-Y-24" style="edgeStyle=none;curved=1;rounded=0;orthogonalLoop=1;jettySize=auto;html=1;entryX=1;entryY=0.5;entryDx=0;entryDy=0;fontSize=12;startSize=8;endSize=8;" edge="1" parent="1" source="wfW3c35R-SHwTNN0qE-Y-18" target="wfW3c35R-SHwTNN0qE-Y-22">
          <mxGeometry relative="1" as="geometry" />
        </mxCell>
        <mxCell id="wfW3c35R-SHwTNN0qE-Y-18" value="ScoreTeam()" style="shape=process;whiteSpace=wrap;html=1;backgroundOutline=1;fontSize=16;" vertex="1" parent="1">
          <mxGeometry x="145.5" y="522" width="173" height="91" as="geometry" />
        </mxCell>
        <mxCell id="wfW3c35R-SHwTNN0qE-Y-19" style="edgeStyle=none;curved=1;rounded=0;orthogonalLoop=1;jettySize=auto;html=1;entryX=0.5;entryY=-0.099;entryDx=0;entryDy=0;entryPerimeter=0;fontSize=12;startSize=8;endSize=8;" edge="1" parent="1" source="wfW3c35R-SHwTNN0qE-Y-9" target="wfW3c35R-SHwTNN0qE-Y-18">
          <mxGeometry relative="1" as="geometry" />
        </mxCell>
        <mxCell id="wfW3c35R-SHwTNN0qE-Y-26" style="edgeStyle=none;curved=1;rounded=0;orthogonalLoop=1;jettySize=auto;html=1;exitX=0.011;exitY=0.008;exitDx=0;exitDy=0;entryX=0.5;entryY=1;entryDx=0;entryDy=0;fontSize=12;startSize=8;endSize=8;exitPerimeter=0;" edge="1" parent="1" source="wfW3c35R-SHwTNN0qE-Y-22" target="wfW3c35R-SHwTNN0qE-Y-14">
          <mxGeometry relative="1" as="geometry" />
        </mxCell>
        <mxCell id="wfW3c35R-SHwTNN0qE-Y-31" value="No" style="edgeLabel;html=1;align=center;verticalAlign=middle;resizable=0;points=[];fontSize=16;" vertex="1" connectable="0" parent="wfW3c35R-SHwTNN0qE-Y-26">
          <mxGeometry x="0.0794" y="-4" relative="1" as="geometry">
            <mxPoint as="offset" />
          </mxGeometry>
        </mxCell>
        <mxCell id="wfW3c35R-SHwTNN0qE-Y-27" style="edgeStyle=none;curved=1;rounded=0;orthogonalLoop=1;jettySize=auto;html=1;fontSize=12;startSize=8;endSize=8;exitX=0.04;exitY=0.987;exitDx=0;exitDy=0;exitPerimeter=0;entryX=1;entryY=0.5;entryDx=0;entryDy=0;" edge="1" parent="1" source="wfW3c35R-SHwTNN0qE-Y-22" target="wfW3c35R-SHwTNN0qE-Y-28">
          <mxGeometry relative="1" as="geometry">
            <mxPoint x="-14" y="687" as="targetPoint" />
            <mxPoint x="-39" y="630" as="sourcePoint" />
          </mxGeometry>
        </mxCell>
        <mxCell id="wfW3c35R-SHwTNN0qE-Y-30" value="Yes" style="edgeLabel;html=1;align=center;verticalAlign=middle;resizable=0;points=[];fontSize=16;" vertex="1" connectable="0" parent="wfW3c35R-SHwTNN0qE-Y-27">
          <mxGeometry x="-0.1546" y="-1" relative="1" as="geometry">
            <mxPoint as="offset" />
          </mxGeometry>
        </mxCell>
        <mxCell id="wfW3c35R-SHwTNN0qE-Y-22" value="Pass" style="triangle;whiteSpace=wrap;html=1;fontSize=16;" vertex="1" parent="1">
          <mxGeometry x="-58.5" y="508.5" width="88.5" height="118" as="geometry" />
        </mxCell>
        <mxCell id="wfW3c35R-SHwTNN0qE-Y-33" style="edgeStyle=none;curved=1;rounded=0;orthogonalLoop=1;jettySize=auto;html=1;exitX=0.5;exitY=0;exitDx=0;exitDy=0;entryX=0.5;entryY=1;entryDx=0;entryDy=0;fontSize=12;startSize=8;endSize=8;" edge="1" parent="1" source="wfW3c35R-SHwTNN0qE-Y-28" target="wfW3c35R-SHwTNN0qE-Y-14">
          <mxGeometry relative="1" as="geometry" />
        </mxCell>
        <mxCell id="wfW3c35R-SHwTNN0qE-Y-28" value="&lt;b&gt;&lt;u&gt;Save Team&lt;/u&gt;&lt;/b&gt;" style="rounded=0;whiteSpace=wrap;html=1;fontSize=16;" vertex="1" parent="1">
          <mxGeometry x="-338" y="551" width="120" height="149" as="geometry" />
        </mxCell>
      </root>
    </mxGraphModel>
  </diagram>
</mxfile>
